<svg xmlns="http://www.w3.org/2000/svg" height="32" width="32" style=""><rect id="backgroundrect" width="100%" height="100%" x="0" y="0" fill="none" stroke="none" style="" class=""/><g class="currentLayer" style=""><title>Layer 1</title><path fill="#525252" d="M17.707880012401237,10.164510500878682 L11.958333221412111,17.830572888864186 h3.8330311939927584 v13.41560917897465 h3.8330311939927584 V17.830572888864186 h3.8330311939927584 L17.707880012401237,10.164510500878682 zM11.958333221412111,10.164510500878682 h1.9165155969963794 v-1.9165155969963794 h-1.9165155969963794 V10.164510500878682 zM13.874848818408486,4.414963709889543 h-1.9165155969963794 v1.9165155969963794 h1.9165155969963794 V4.414963709889543 zM25.373942400386753,0.5819325158967626 H6.208786430422971 C6.208786430422971,0.5819325158967626 4.2922708334265804,0.5819325158967626 4.2922708334265804,2.4984481128931217 v22.99818716395655 c0,1.9165155969963794 1.9165155969963794,1.9165155969963794 1.9165155969963794,1.9165155969963794 h3.8330311939927584 v3.8330311939927584 l3.8330311939927584,-3.8330311939927584 V23.580119679853325 H10.041817624415721 v1.9165155969963794 h-1.9165155969963794 c-1.9165155969963794,0 -1.9165155969963794,-1.9165155969963794 -1.9165155969963794,-1.9165155969963794 v-1.9165155969963794 h7.666062387985516 v-1.9165155969963794 H10.041817624415721 V2.4984481128931217 h15.362070332174099 l-0.029945556203068453,17.24864037296741 H21.540911206394 v1.9165155969963794 h3.8330311939927584 v1.9165155969963794 c0,1.845394901014091 -1.9165155969963794,1.9165155969963794 -1.9165155969963794,1.9165155969963794 h-1.9165155969963794 v1.9165155969963794 h3.8330311939927584 c0,0 1.9165155969963794,-0.033688750728452045 1.9165155969963794,-1.9165155969963794 V2.4984481128931217 C27.290457997383143,0.5819325158967626 25.373942400386753,0.5819325158967626 25.373942400386753,0.5819325158967626 z" id="svg_1" class=""/></g></svg>